<svg width="27.04" height="22.25" xmlns="http://www.w3.org/2000/svg">

 <g>
  <title>background</title>
  <rect fill="none" id="canvas_background" height="402" width="582" y="-1" x="-1"/>
 </g>
 <g>
  <title>Layer 1</title>
  <path fill-rule="evenodd" fill="#2a69a6" d="m17.360034,9.748002s-0.98,5.7 -2.02,6.94a2.919,2.919 0 0 1 -4.13,0.332a2.965,2.965 0 0 1 -0.33,-4.151c1.05,-1.237 6.48,-3.121 6.48,-3.121zm6.2,12.509l-20.1,0a0.993,0.993 0 0 1 -0.79,-0.393a13.521,13.521 0 1 1 21.68,0a0.993,0.993 0 0 1 -0.79,0.394l0,-0.001zm-19.59,-2.017l19.08,0a11.79,11.79 0 0 0 1.98,-6.586a11.516,11.516 0 1 0 -23.03,0.026a11.737,11.737 0 0 0 1.97,6.561l0,-0.001zm1.61,-6.346a1.007,1.007 0 0 1 -1.01,-1.008a8.941,8.941 0 1 1 17.88,-0.028a1,1 0 1 1 -2,0a6.936,6.936 0 1 0 -13.87,0.028a1,1 0 0 1 -1,1.008z" class="cls-1" id="Dashboard"/>
 </g>
</svg>