<?xml version="1.0" encoding="UTF-8" standalone="no"?><!-- Generator: Gravit.io --><svg xmlns="http://www.w3.org/2000/svg" xmlns:xlink="http://www.w3.org/1999/xlink" style="isolation:isolate" viewBox="0 0 25.062 24.781" width="25.062pt" height="24.781pt"><defs><clipPath id="_clipPath_qmFDRAvOSM3hO1OtzObpzb5inGzFuE6R"><rect width="25.062" height="24.781"/></clipPath></defs><g clip-path="url(#_clipPath_qmFDRAvOSM3hO1OtzObpzb5inGzFuE6R)"><path d=" M 12.653 18.8 C 10.216 18.804 8.018 17.339 7.082 15.089 C 6.147 12.84 6.66 10.248 8.381 8.523 C 10.103 6.799 12.694 6.282 14.945 7.213 C 17.197 8.145 18.665 10.341 18.665 12.778 C 18.664 16.1 15.974 18.793 12.653 18.8 L 12.653 18.8 Z  M 12.653 8.763 C 11.028 8.76 9.562 9.737 8.939 11.237 C 8.315 12.737 8.657 14.465 9.804 15.615 C 10.952 16.764 12.68 17.109 14.181 16.488 C 15.682 15.867 16.661 14.403 16.661 12.778 C 16.663 10.562 14.869 8.763 12.653 8.759 L 12.653 8.763 Z  M 9.982 24.79 C 9.908 24.79 9.833 24.782 9.761 24.765 C 7.925 24.346 6.208 23.52 4.735 22.347 C 4.303 22.001 4.231 21.371 4.575 20.937 L 4.968 20.444 C 4.272 19.772 3.666 19.012 3.168 18.183 L 2.597 18.46 C 2.358 18.576 2.083 18.592 1.831 18.505 C 1.58 18.418 1.374 18.234 1.259 17.995 C 0.436 16.299 0.008 14.439 0.009 12.554 C 0.007 12.288 0.112 12.032 0.3 11.843 C 0.487 11.654 0.743 11.548 1.009 11.548 L 1.632 11.548 C 1.719 10.581 1.936 9.631 2.276 8.722 L 1.706 8.448 C 1.465 8.333 1.281 8.128 1.192 7.876 C 1.104 7.625 1.12 7.349 1.236 7.109 C 2.051 5.414 3.234 3.922 4.698 2.742 C 4.905 2.575 5.17 2.498 5.435 2.527 C 5.699 2.556 5.941 2.689 6.107 2.897 L 6.501 3.388 C 7.309 2.855 8.183 2.43 9.101 2.124 L 8.959 1.508 C 8.838 0.969 9.174 0.434 9.711 0.308 C 11.543 -0.109 13.444 -0.115 15.278 0.291 C 15.538 0.349 15.765 0.508 15.907 0.733 C 16.05 0.958 16.097 1.231 16.037 1.491 L 15.9 2.109 C 16.821 2.409 17.699 2.829 18.51 3.359 L 18.902 2.864 C 19.067 2.655 19.308 2.521 19.572 2.49 C 19.836 2.457 20.102 2.533 20.309 2.701 C 21.78 3.872 22.972 5.356 23.798 7.046 C 24.041 7.544 23.835 8.145 23.337 8.389 L 22.768 8.666 C 23.115 9.576 23.338 10.529 23.43 11.499 L 24.044 11.491 C 24.312 11.487 24.57 11.591 24.761 11.779 C 24.952 11.967 25.059 12.223 25.059 12.491 C 25.069 14.39 24.645 16.266 23.821 17.976 C 23.705 18.215 23.5 18.399 23.249 18.487 C 22.998 18.575 22.722 18.559 22.483 18.443 L 21.911 18.167 C 21.412 18.997 20.807 19.759 20.111 20.432 L 20.504 20.925 C 20.671 21.133 20.749 21.398 20.719 21.663 C 20.689 21.928 20.555 22.17 20.346 22.336 C 18.876 23.511 17.16 24.34 15.326 24.762 C 15.067 24.822 14.795 24.776 14.569 24.634 C 14.344 24.493 14.185 24.267 14.126 24.008 L 13.986 23.395 C 13.027 23.528 12.055 23.528 11.096 23.395 L 10.958 24.008 C 10.899 24.267 10.739 24.492 10.515 24.635 C 10.356 24.736 10.171 24.79 9.982 24.79 Z  M 6.798 21.364 C 7.557 21.858 8.376 22.253 9.236 22.538 L 9.354 22.015 C 9.412 21.755 9.571 21.529 9.796 21.386 C 10.021 21.244 10.294 21.197 10.554 21.257 C 11.862 21.563 13.223 21.563 14.531 21.257 C 14.79 21.197 15.063 21.243 15.288 21.385 C 15.513 21.527 15.673 21.752 15.731 22.012 L 15.851 22.535 C 16.71 22.248 17.529 21.852 18.287 21.357 L 17.954 20.938 C 17.787 20.731 17.709 20.465 17.739 20.201 C 17.768 19.936 17.902 19.694 18.11 19.528 C 19.157 18.686 20.003 17.621 20.586 16.411 C 20.701 16.171 20.907 15.987 21.158 15.899 C 21.409 15.811 21.685 15.827 21.924 15.943 L 22.412 16.178 C 22.729 15.318 22.93 14.42 23.012 13.507 L 22.492 13.514 C 22.228 13.501 21.976 13.399 21.776 13.226 C 21.585 13.038 21.477 12.781 21.476 12.513 C 21.474 11.161 21.163 9.827 20.568 8.613 C 20.451 8.374 20.433 8.098 20.52 7.846 C 20.607 7.595 20.79 7.388 21.03 7.272 L 21.515 7.035 C 21.04 6.262 20.469 5.553 19.815 4.925 L 19.482 5.346 C 19.317 5.555 19.077 5.689 18.813 5.72 C 18.549 5.751 18.283 5.675 18.075 5.51 C 17.026 4.673 15.8 4.086 14.49 3.793 C 14.23 3.735 14.004 3.576 13.861 3.351 C 13.719 3.126 13.672 2.853 13.732 2.593 L 13.848 2.07 C 12.951 1.96 12.044 1.963 11.148 2.079 L 11.27 2.603 C 11.33 2.862 11.284 3.134 11.143 3.359 C 11.002 3.584 10.777 3.744 10.518 3.803 C 9.211 4.106 7.989 4.698 6.942 5.537 C 6.735 5.704 6.47 5.781 6.206 5.752 C 5.942 5.723 5.7 5.59 5.534 5.383 L 5.199 4.967 C 4.551 5.6 3.986 6.312 3.517 7.087 L 4.004 7.321 C 4.244 7.436 4.429 7.642 4.517 7.893 C 4.605 8.144 4.589 8.42 4.473 8.66 C 3.891 9.864 3.589 11.185 3.589 12.522 C 3.592 13.08 3.146 13.536 2.589 13.547 L 2.062 13.547 C 2.147 14.45 2.351 15.339 2.667 16.189 L 3.153 15.953 C 3.392 15.836 3.668 15.82 3.92 15.907 C 4.171 15.995 4.378 16.179 4.493 16.419 C 5.078 17.628 5.926 18.69 6.974 19.53 C 7.406 19.876 7.478 20.506 7.133 20.94 L 6.798 21.364 Z " fill-rule="evenodd" fill="rgb(42,105,166)"/></g></svg>